Live & Swingin - The Ultimate Rat Pack Collection - [EAC- Mp3@320 kps]+[ Dvd RIP]

CD TRACKLIST

01.Matty Malneck / FanFare & Introduction 00:43
02.Dean Martin / Medley: Drink To Me Only With Thine Eyes - WhenYou're Smiling - The Lady Is A Tramp 03:52
03.Dean Martin / I Left My Heart In San Francisco 03:18
04.Dean Martin / I'm Gonna Sit Right Down And Write Myself A Letter 01:46
05.Dean Martin / Medley: Volare - On An Evening In Roma 02:30
06.Frank Sinatra / Goody Goody 01:34
07.Frank Sinatra / Chicago 02:08
08.Frank Sinatra / When Your Lover Has Gone 02:35
09.Frank Sinatra / Monologue 01:16
10.Frank Sinatra / Please Be Kind 02:45
11.Frank Sinatra / You're Nobody Till Somebody Loves You 03:13
12.Sammy Davis Jr. / What Kind Of Fool Am I 03:01
13.Sammy Davis Jr. / Out Of This World 03:36
14.Sammy Davis Jr. / She's Funny That Way 01:56
15.Sammy Davis Jr. / Hey There 01:46
16.Frank Sinatra & Dean Martin / Comedy 04:09
17.Frank Sinatra & Dean Martin / Medley 1 05:09
18.Frank Sinatra & Dean Martin / Medley 2 08:35
19.Frank Sinatra, Dean Martin & Sammy Davis Jr. / Impressions 02:15
20.Frank Sinatra, Dean Martin & Sammy Davis Jr. / Birth Of The Blues 02:22
21.Frank Sinatra, Dean Martin & Sammy Davis Jr. / Danny Thomas Introduction 01:03
22.Frank Sinatra / Nancy (With The Laughing Face) 02:29
23.Frank Sinatra & Sammy Davis Jr. / Me And My Shadow 02:30
24.Dean Martin & Sammy Davis Jr. / Sam's Song 02:43
25.Frank Sinatra, Dean Martin & Sammy Davis Jr. / Birth Of The BlueS 01:30

video info

General
Complete name : FSS.divx
Format : DivX
Format/Info : Hack of AVI
File size : 813 MiB
Duration : 1h 30mn
Overall bit rate : 1 261 Kbps

Video
ID : 0
Format : MPEG-4 Visual
Format settings, BVOP : Yes
Format settings, QPel : No
Format settings, GMC : No warppoints
Format settings, Matrix : Default (H.263)
Muxing mode : Packed bitstream
Codec ID : DX50
Codec ID/Hint : DivX 5
Duration : 1h 30mn
Bit rate : 1 061 Kbps
Width : 672 pixels
Height : 384 pixels
Display aspect ratio : 16/9
Frame rate : 25.000 fps
Resolution : 24 bits
Colorimetry : 4:2:0
Scan type : Progressive
Bits/(Pixel*Frame) : 0.164
Stream size : 684 MiB (84%)
Title : Video
Writing library : DivX 6.8.2 (UTC 2008-05-17)

Audio
ID : 1
Format : AC-3
Format/Info : Audio Coding 3
Codec ID : 2000
Duration : 1h 29mn
Bit rate mode : Constant
Bit rate : 192 Kbps
Channel(s) : 2 channels
Channel positions : L R
Sampling rate : 48.0 KHz
Stream size : 123 MiB (15%)
Alignment : Split accross interleaves
Interleave, duration : 40 ms (1.01 video frame)
Interleave, preload duration : 500 ms
Title : Audio